<svg width="32" height="32" viewBox="0 0 32 32" fill="none" xmlns="http://www.w3.org/2000/svg">
<rect width="32" height="32" rx="16" fill="#1EAEFB"/>
<path d="M11.1035 9.77777C9.239 9.77777 8.05682 11.7892 8.99498 13.4154L15.1754 24.1277C15.5904 24.8476 16.6306 24.8476 17.0456 24.1277L23.2273 13.4154C24.1642 11.7917 22.982 9.77778 21.1188 9.77777H16.1111H11.1035ZM21.1163 11.6676C21.5413 11.6676 21.7914 12.1185 21.5889 12.4699L18.3423 18.2814L18.3417 18.2823L17.0536 20.7742V11.6676H21.1163ZM15.1649 11.6688V20.7717L13.878 18.2809L13.8776 18.2801L10.6298 12.4715L10.6204 12.4546C10.435 12.1057 10.6838 11.6688 11.1022 11.6688H15.1649Z" fill="white"/>
</svg>
