<svg xmlns="http://www.w3.org/2000/svg" viewBox="0 0 24 24" fill="none" aria-hidden="true"><rect width="24" height="24" rx="6" fill="#5865F2"/><path d="M17.5 7.4a13 13 0 0 0-3.2-1l-.2.3a12 12 0 0 1 2.9 1.4 11 11 0 0 0-9.9-.3 12 12 0 0 1 3-1.4l-.2-.3c-1.2.2-2.3.5-3.3 1A14 14 0 0 0 4.4 16c1.4 1 2.7 1.6 4 2l.4-.7a7 7 0 0 1-2.4-1.2 8 8 0 0 0 11.3 0c-.7.6-1.5 1-2.4 1.2l.4.7a13 13 0 0 0 4-2A14 14 0 0 0 17.5 7.4ZM9 13.7c-.8 0-1.4-.7-1.4-1.5 0-.9.6-1.5 1.4-1.5s1.4.7 1.4 1.5c0 .9-.6 1.5-1.4 1.5Zm6 0c-.8 0-1.4-.7-1.4-1.5 0-.9.6-1.5 1.4-1.5s1.4.7 1.4 1.5c0 .9-.6 1.5-1.4 1.5Z" fill="#fff"/></svg>
