<svg xmlns="http://www.w3.org/2000/svg" viewBox="0 0 24 24" fill="none" aria-hidden="true"><rect width="24" height="24" rx="6" fill="#1A1530"/><path d="M12 4c2.5 0 4.5 2 4.5 4.5 0 1.6-.7 3.1-1.8 4.1l-.5 4.4c0 .3-.2.5-.5.5h-3.4c-.3 0-.5-.2-.5-.5l-.5-4.4A5.6 5.6 0 0 1 7.5 8.5C7.5 6 9.5 4 12 4Zm0 5a1.4 1.4 0 1 0 0-2.8A1.4 1.4 0 0 0 12 9Zm-2.3 9 .3 1.5c0 .3.3.5.5.5h3c.2 0 .4-.2.5-.5l.3-1.5h-4.6Z" fill="#FB7185"/><circle cx="6.5" cy="14.5" r="1" fill="#FBBF24"/><circle cx="17.5" cy="13.5" r="1" fill="#FBBF24"/></svg>
