<svg xmlns="http://www.w3.org/2000/svg" viewBox="0 0 24 24" fill="none" aria-hidden="true"><rect width="24" height="24" rx="6" fill="#0B1220"/><path d="M9 13.5a1.5 1.5 0 1 1-1.5-1.5H9v1.5Zm.8 0a1.5 1.5 0 0 1 3 0v3.8a1.5 1.5 0 0 1-3 0v-3.8Z" fill="#E01E5A"/><path d="M11.3 7.5a1.5 1.5 0 1 1 1.5-1.5V7.5h-1.5Zm0 .8a1.5 1.5 0 1 1 0 3H7.5a1.5 1.5 0 1 1 0-3h3.8Z" fill="#36C5F0"/><path d="M14.5 10.5a1.5 1.5 0 1 1 1.5 1.5h-1.5v-1.5Zm-.8 0a1.5 1.5 0 0 1-3 0V6.7a1.5 1.5 0 1 1 3 0v3.8Z" fill="#2EB67D"/><path d="M12.7 16.5a1.5 1.5 0 1 1-1.5 1.5v-1.5h1.5Zm0-.8a1.5 1.5 0 0 1 0-3h3.8a1.5 1.5 0 1 1 0 3h-3.8Z" fill="#ECB22E"/></svg>
